<svg width="61" height="61" viewBox="0 0 61 61" fill="none" xmlns="http://www.w3.org/2000/svg">
<circle cx="30.5" cy="30.5" r="30.5" fill="url(#paint0_linear_706_1946)"/>
<circle cx="30" cy="31" r="20" fill="#133550"/>
<g clip-path="url(#clip0_706_1946)">
<path d="M20.3494 26.9469C19.4925 26.9487 18.7969 27.6444 18.7969 28.5012V35.6975C18.7977 36.109 18.9616 36.5034 19.2525 36.7944C19.5435 37.0853 19.9379 37.2492 20.3494 37.25H21.39V26.9375L20.3494 26.9469ZM39.6975 26.9469C40.5544 26.9487 41.25 27.6444 41.25 28.5012V35.6975C41.2481 36.5544 40.5544 37.25 39.6975 37.2519H38.6569V26.9394L39.6975 26.9469Z" fill="#C62828"/>
<path d="M39.2194 27.2018L39.1969 25.3268C39.1913 24.5206 38.535 23.87 37.7288 23.8737H30.5719V21.3593C31.53 21.0425 32.0513 20.0093 31.7344 19.0512C31.4175 18.0931 30.3844 17.5718 29.4263 17.8887C28.4681 18.2056 27.9469 19.2387 28.2638 20.1968C28.3532 20.468 28.5049 20.7144 28.7068 20.9163C28.9087 21.1182 29.1551 21.2699 29.4263 21.3593V23.8831H22.2713C21.4688 23.885 20.8181 24.5337 20.8125 25.3362V38.795C20.8181 39.5975 21.4688 40.2462 22.2713 40.25H37.7288C38.535 40.2518 39.1913 39.6012 39.1969 38.795V37.4131H39.2194V27.2018Z" fill="#90A4AE"/>
<path d="M30 20.375C29.5856 20.375 29.25 20.0394 29.25 19.625C29.25 19.2106 29.5856 18.875 30 18.875C30.4144 18.875 30.75 19.2106 30.75 19.625C30.75 20.0394 30.4144 20.375 30 20.375Z" fill="#C62828"/>
<path d="M26.2781 34.7094H33.7238C34.3725 34.7094 34.8994 35.2363 34.8994 35.885V35.9919C34.8994 36.6407 34.3725 37.1675 33.7238 37.1675H26.2781C25.6294 37.1675 25.1025 36.6407 25.1025 35.9919V35.885C25.1025 35.2363 25.6294 34.7094 26.2781 34.7094Z" fill="url(#paint1_linear_706_1946)"/>
<path d="M28.0631 34.7132H28.5056V37.1675H28.0631V34.7132Z" fill="url(#paint2_linear_706_1946)"/>
<path d="M29.79 34.7132H30.2325V37.1675H29.79V34.7132Z" fill="url(#paint3_linear_706_1946)"/>
<path d="M31.4944 34.7132H31.9369V37.1675H31.4944V34.7132Z" fill="url(#paint4_linear_706_1946)"/>
<path d="M33.3037 34.7132H33.7462V37.1675H33.3037V34.7132Z" fill="url(#paint5_linear_706_1946)"/>
<path d="M26.2538 34.7094H26.6963V37.1638H26.2538V34.7094Z" fill="url(#paint6_linear_706_1946)"/>
<path d="M30 32.9994H29.0006C28.8975 32.9994 28.8131 32.915 28.8131 32.8119C28.8131 32.7819 28.8206 32.7538 28.8338 32.7275L29.3475 31.7132L29.8331 30.8169C29.849 30.7869 29.8728 30.7618 29.9019 30.7444C29.9309 30.7269 29.9642 30.7176 29.9981 30.7176C30.0321 30.7176 30.0654 30.7269 30.0944 30.7444C30.1235 30.7618 30.1473 30.7869 30.1631 30.8169L30.6525 31.7544L31.1606 32.7275C31.2075 32.8194 31.1719 32.9319 31.08 32.9807C31.0538 32.9938 31.0256 33.0013 30.9956 33.0013L30 32.9994Z" fill="#C62828"/>
<path d="M25.995 31.6831C27.1859 31.6831 28.1512 30.7177 28.1512 29.5269C28.1512 28.336 27.1859 27.3706 25.995 27.3706C24.8041 27.3706 23.8387 28.336 23.8387 29.5269C23.8387 30.7177 24.8041 31.6831 25.995 31.6831Z" fill="url(#paint7_radial_706_1946)"/>
<path d="M25.995 31.6831C27.1859 31.6831 28.1512 30.7177 28.1512 29.5269C28.1512 28.336 27.1859 27.3706 25.995 27.3706C24.8041 27.3706 23.8387 28.336 23.8387 29.5269C23.8387 30.7177 24.8041 31.6831 25.995 31.6831Z" stroke="url(#paint8_linear_706_1946)" stroke-width="0.375" stroke-miterlimit="10"/>
<path d="M33.9375 27.365C32.7469 27.365 31.7812 28.3306 31.7812 29.5212C31.7812 30.7118 32.7469 31.6775 33.9375 31.6775C35.1281 31.6775 36.0938 30.7118 36.0938 29.5212C36.0919 28.3306 35.1281 27.3668 33.9375 27.365Z" fill="url(#paint9_radial_706_1946)"/>
<path d="M33.9375 27.365C32.7469 27.365 31.7812 28.3306 31.7812 29.5212C31.7812 30.7118 32.7469 31.6775 33.9375 31.6775C35.1281 31.6775 36.0938 30.7118 36.0938 29.5212C36.0919 28.3306 35.1281 27.3668 33.9375 27.365Z" stroke="url(#paint10_linear_706_1946)" stroke-width="0.375" stroke-miterlimit="10"/>
</g>
<defs>
<linearGradient id="paint0_linear_706_1946" x1="30.5" y1="0" x2="30.5" y2="61" gradientUnits="userSpaceOnUse">
<stop stop-color="#202020"/>
<stop offset="0.466529" stop-color="#2D2D2D"/>
<stop offset="0.762581" stop-color="#1D1D1D"/>
</linearGradient>
<linearGradient id="paint1_linear_706_1946" x1="30.0009" y1="37.1675" x2="30.0009" y2="34.7094" gradientUnits="userSpaceOnUse">
<stop offset="0.12" stop-color="#E0E0E0"/>
<stop offset="0.52" stop-color="white"/>
<stop offset="1" stop-color="#EAEAEA"/>
</linearGradient>
<linearGradient id="paint2_linear_706_1946" x1="28.2844" y1="37.1675" x2="28.2844" y2="34.7132" gradientUnits="userSpaceOnUse">
<stop stop-color="#333333"/>
<stop offset="0.55" stop-color="#666666"/>
<stop offset="1" stop-color="#333333"/>
</linearGradient>
<linearGradient id="paint3_linear_706_1946" x1="30.0113" y1="37.1675" x2="30.0113" y2="34.7132" gradientUnits="userSpaceOnUse">
<stop stop-color="#333333"/>
<stop offset="0.55" stop-color="#666666"/>
<stop offset="1" stop-color="#333333"/>
</linearGradient>
<linearGradient id="paint4_linear_706_1946" x1="31.7156" y1="37.1675" x2="31.7156" y2="34.7132" gradientUnits="userSpaceOnUse">
<stop stop-color="#333333"/>
<stop offset="0.55" stop-color="#666666"/>
<stop offset="1" stop-color="#333333"/>
</linearGradient>
<linearGradient id="paint5_linear_706_1946" x1="33.525" y1="37.1675" x2="33.525" y2="34.7132" gradientUnits="userSpaceOnUse">
<stop stop-color="#333333"/>
<stop offset="0.55" stop-color="#666666"/>
<stop offset="1" stop-color="#333333"/>
</linearGradient>
<linearGradient id="paint6_linear_706_1946" x1="26.475" y1="37.1638" x2="26.475" y2="34.7094" gradientUnits="userSpaceOnUse">
<stop stop-color="#333333"/>
<stop offset="0.55" stop-color="#666666"/>
<stop offset="1" stop-color="#333333"/>
</linearGradient>
<radialGradient id="paint7_radial_706_1946" cx="0" cy="0" r="1" gradientUnits="userSpaceOnUse" gradientTransform="translate(25.995 29.5269) scale(2.15625)">
<stop offset="0.48" stop-color="white"/>
<stop offset="0.77" stop-color="#FDFDFD"/>
<stop offset="0.88" stop-color="#F6F6F6"/>
<stop offset="0.96" stop-color="#EBEBEB"/>
<stop offset="1" stop-color="#E0E0E0"/>
</radialGradient>
<linearGradient id="paint8_linear_706_1946" x1="23.6512" y1="29.5269" x2="28.3387" y2="29.5269" gradientUnits="userSpaceOnUse">
<stop stop-color="#333333"/>
<stop offset="0.55" stop-color="#666666"/>
<stop offset="1" stop-color="#333333"/>
</linearGradient>
<radialGradient id="paint9_radial_706_1946" cx="0" cy="0" r="1" gradientUnits="userSpaceOnUse" gradientTransform="translate(33.9281 29.5212) scale(2.15625)">
<stop offset="0.48" stop-color="white"/>
<stop offset="0.77" stop-color="#FDFDFD"/>
<stop offset="0.88" stop-color="#F6F6F6"/>
<stop offset="0.96" stop-color="#EBEBEB"/>
<stop offset="1" stop-color="#E0E0E0"/>
</radialGradient>
<linearGradient id="paint10_linear_706_1946" x1="31.5844" y1="29.5212" x2="36.2719" y2="29.5212" gradientUnits="userSpaceOnUse">
<stop stop-color="#333333"/>
<stop offset="0.55" stop-color="#666666"/>
<stop offset="1" stop-color="#333333"/>
</linearGradient>
<clipPath id="clip0_706_1946">
<rect width="24" height="24" fill="white" transform="translate(18 17)"/>
</clipPath>
</defs>
</svg>
