<svg width="61" height="61" viewBox="0 0 61 61" fill="none" xmlns="http://www.w3.org/2000/svg">
<circle cx="30.5" cy="30.5" r="30.5" fill="url(#paint0_linear_706_1953)"/>
<circle cx="30" cy="31" r="20" fill="#324A5E"/>
<path d="M20.1667 40.125V22.7917C20.1667 21.6 21.1417 20.625 22.3333 20.625H34.25C35.4417 20.625 36.4167 21.6 36.4167 22.7917V40.125C36.4167 41.3167 35.4417 42.2917 34.25 42.2917H22.3333C21.1417 42.2917 20.1667 41.3167 20.1667 40.125Z" fill="#37474F"/>
<path d="M34.25 22.25H22.3333C22.0083 22.25 21.7917 22.4667 21.7917 22.7917V38.5C21.7917 38.825 22.0083 39.0417 22.3333 39.0417H34.25C34.575 39.0417 34.7917 38.825 34.7917 38.5V22.7917C34.7917 22.4667 34.575 22.25 34.25 22.25Z" fill="#BBDEFB"/>
<path d="M26.125 40.125H29.375V41.2083H26.125V40.125Z" fill="#78909C"/>
<path d="M31 41.2083V28.2083C31 27.0167 31.975 26.0417 33.1667 26.0417H39.6667C40.8583 26.0417 41.8333 27.0167 41.8333 28.2083V41.2083C41.8333 42.4 40.8583 43.375 39.6667 43.375H33.1667C31.975 43.375 31 42.4 31 41.2083Z" fill="#E38939"/>
<path d="M39.6667 27.6667H33.1667C32.8417 27.6667 32.625 27.8833 32.625 28.2083V40.125C32.625 40.45 32.8417 40.6667 33.1667 40.6667H39.6667C39.9917 40.6667 40.2083 40.45 40.2083 40.125V28.2083C40.2083 27.8833 39.9917 27.6667 39.6667 27.6667Z" fill="#FFF3E0"/>
<path d="M36.4167 42.8333C36.8654 42.8333 37.2292 42.4696 37.2292 42.0208C37.2292 41.5721 36.8654 41.2083 36.4167 41.2083C35.9679 41.2083 35.6042 41.5721 35.6042 42.0208C35.6042 42.4696 35.9679 42.8333 36.4167 42.8333Z" fill="#A6642A"/>
<defs>
<linearGradient id="paint0_linear_706_1953" x1="30.5" y1="0" x2="30.5" y2="61" gradientUnits="userSpaceOnUse">
<stop stop-color="#202020"/>
<stop offset="0.466529" stop-color="#2D2D2D"/>
<stop offset="0.762581" stop-color="#1D1D1D"/>
</linearGradient>
</defs>
</svg>
