<svg width="27" height="28" viewBox="0 0 27 28" fill="none" xmlns="http://www.w3.org/2000/svg">
<path d="M6.75 13.6029H12.3088V14.3971H6.75V13.6029ZM13.1029 14.3971V13.6029H13.8971V14.3971H13.1029ZM13.8971 12.8088H13.1029V7.25H13.8971V12.8088ZM14.6912 14.3971V13.6029H20.25V14.3971H14.6912ZM13.1029 15.1912H13.8971V20.75H13.1029V15.1912ZM13.5 27.1029C6.25458 27.1029 0.397059 21.2454 0.397059 14C0.397059 6.75458 6.25458 0.897059 13.5 0.897059C20.7454 0.897059 26.6029 6.75458 26.6029 14C26.6029 21.2454 20.7454 27.1029 13.5 27.1029ZM13.5 1.69118C6.68953 1.69118 1.19118 7.18953 1.19118 14C1.19118 20.8105 6.68953 26.3088 13.5 26.3088C20.3105 26.3088 25.8088 20.8105 25.8088 14C25.8088 7.18953 20.3105 1.69118 13.5 1.69118Z" fill="url(#paint0_linear_316_1860)" stroke="#919191" stroke-width="0.794118"/>
<defs>
<linearGradient id="paint0_linear_316_1860" x1="13.5" y1="0.5" x2="13.5" y2="27.5" gradientUnits="userSpaceOnUse">
<stop stop-color="#A2A2A2"/>
<stop offset="1" stop-color="#191919"/>
</linearGradient>
</defs>
</svg>
