<svg width="40" height="36" viewBox="0 0 40 36" fill="none" xmlns="http://www.w3.org/2000/svg">
<path d="M19.7819 32.4C19.9031 32.4 20.0242 32.37 20.1454 32.31C20.2665 32.25 20.3574 32.19 20.418 32.13L35.3203 17.37C35.6838 17.01 35.9491 16.605 36.1163 16.155C36.2835 15.705 36.3665 15.255 36.3653 14.805C36.3653 14.325 36.2823 13.8672 36.1163 13.4316C35.9503 12.996 35.685 12.6138 35.3203 12.285L27.5965 4.635C27.2634 4.275 26.8769 4.0128 26.4371 3.8484C25.9973 3.684 25.5363 3.6012 25.0541 3.6C24.5997 3.6 24.1454 3.6828 23.691 3.8484C23.2367 4.014 22.8278 4.2762 22.4643 4.635L21.9646 5.13L25.3267 8.505C25.781 8.925 26.1142 9.405 26.3262 9.945C26.5382 10.485 26.6443 11.055 26.6443 11.655C26.6443 12.915 26.2129 13.9728 25.3503 14.8284C24.4877 15.684 23.4197 16.1112 22.1463 16.11C21.5405 16.11 20.9577 16.005 20.398 15.795C19.8383 15.585 19.3458 15.27 18.9205 14.85L15.5111 11.52L7.5602 19.395C7.46933 19.485 7.40148 19.5828 7.35666 19.6884C7.31183 19.794 7.28881 19.9062 7.2876 20.025C7.2876 20.265 7.37847 20.4828 7.5602 20.6784C7.74194 20.874 7.95396 20.9712 8.19627 20.97C8.31743 20.97 8.43859 20.94 8.55975 20.88C8.6809 20.82 8.77177 20.76 8.83235 20.7L15.0114 14.58L17.5557 17.1L11.4221 23.22C11.3312 23.31 11.2634 23.4078 11.2185 23.5134C11.1737 23.619 11.1507 23.7312 11.1495 23.85C11.1495 24.09 11.2403 24.3 11.4221 24.48C11.6038 24.66 11.8158 24.75 12.0582 24.75C12.1793 24.75 12.3005 24.72 12.4216 24.66C12.5428 24.6 12.6337 24.54 12.6942 24.48L18.8732 18.405L21.4175 20.925L15.284 27.045C15.1931 27.105 15.1252 27.195 15.0804 27.315C15.0356 27.435 15.0126 27.555 15.0114 27.675C15.0114 27.915 15.1022 28.125 15.284 28.305C15.4657 28.485 15.6777 28.575 15.92 28.575C16.0412 28.575 16.1551 28.5522 16.2617 28.5066C16.3683 28.461 16.4665 28.3938 16.5561 28.305L22.7351 22.23L25.2794 24.75L19.1004 30.87C19.0095 30.96 18.9417 31.0572 18.8969 31.1616C18.852 31.266 18.829 31.3788 18.8278 31.5C18.8278 31.74 18.9265 31.95 19.124 32.13C19.3215 32.31 19.5408 32.4 19.7819 32.4ZM19.7365 36C18.6158 36 17.6241 35.6328 16.7615 34.8984C15.8988 34.164 15.3912 33.2412 15.2385 32.13C14.2087 31.98 13.3454 31.56 12.6488 30.87C11.9521 30.18 11.5281 29.325 11.3766 28.305C10.3468 28.155 9.49144 27.7278 8.81054 27.0234C8.12964 26.319 7.71286 25.4712 7.5602 24.48C6.40921 24.33 5.47024 23.835 4.7433 22.995C4.01636 22.155 3.65288 21.165 3.65288 20.025C3.65288 19.425 3.76677 18.8478 3.99455 18.2934C4.22232 17.739 4.54763 17.2512 4.97047 16.83L15.5111 6.435L21.463 12.33C21.5236 12.42 21.6144 12.4878 21.7356 12.5334C21.8567 12.579 21.9779 12.6012 22.099 12.6C22.3716 12.6 22.5988 12.5178 22.7806 12.3534C22.9623 12.189 23.0532 11.9712 23.0532 11.7C23.0532 11.58 23.0301 11.46 22.9841 11.34C22.9381 11.22 22.8702 11.13 22.7806 11.07L16.2835 4.635C15.9503 4.275 15.5644 4.0128 15.1259 3.8484C14.6873 3.684 14.225 3.6012 13.7392 3.6C13.2849 3.6 12.8305 3.6828 12.3762 3.8484C11.9219 4.014 11.5129 4.2762 11.1495 4.635L4.7433 11.025C4.4707 11.295 4.24353 11.61 4.06179 11.97C3.88005 12.33 3.7589 12.69 3.69832 13.05C3.63774 13.41 3.63774 13.7778 3.69832 14.1534C3.7589 14.529 3.88005 14.8812 4.06179 15.21L1.42662 17.82C0.911707 17.13 0.533091 16.3728 0.290777 15.5484C0.0484628 14.724 -0.042405 13.8912 0.0181736 13.05C0.0787521 12.2088 0.290777 11.3916 0.654248 10.5984C1.01772 9.8052 1.51749 9.0924 2.15357 8.46L8.55975 2.115C9.28669 1.425 10.0972 0.9 10.9914 0.54C11.8855 0.18 12.8015 0 13.7392 0C14.677 0 15.5935 0.18 16.4889 0.54C17.3842 0.9 18.179 1.425 18.8732 2.115L19.373 2.61L19.8728 2.115C20.5997 1.425 21.4103 0.9 22.3044 0.54C23.1985 0.18 24.1145 0 25.0522 0C25.99 0 26.9066 0.18 27.8019 0.54C28.6973 0.9 29.492 1.425 30.1863 2.115L37.8646 9.72C38.5613 10.41 39.0913 11.205 39.4548 12.105C39.8183 13.005 40 13.92 40 14.85C40 15.78 39.8183 16.6878 39.4548 17.5734C39.0913 18.459 38.5613 19.2462 37.8646 19.935L22.9623 34.65C22.5382 35.07 22.0463 35.4 21.4866 35.64C20.9269 35.88 20.3435 36 19.7365 36Z" fill="#4446AE"/>
</svg>
