<svg width="44" height="40" viewBox="0 0 44 40" fill="none" xmlns="http://www.w3.org/2000/svg">
<path d="M12.5235 36.1054H8.31412C6.63951 36.1054 5.03349 35.5066 3.84936 34.4406C2.66524 33.3746 2 31.9288 2 30.4212V28.5265H13.5759M31.4659 12.4212V5.78966C31.4659 5.04017 31.7128 4.30752 32.1753 3.68434C32.6379 3.06117 33.2953 2.57546 34.0645 2.28864C34.8336 2.00183 35.68 1.92678 36.4965 2.073C37.3131 2.21922 38.0631 2.58013 38.6518 3.1101C39.2405 3.64006 39.6414 4.31528 39.8039 5.05037C39.9663 5.78546 39.8829 6.54739 39.5643 7.23983C39.2457 7.93227 38.7062 8.5241 38.014 8.94049C37.3217 9.35688 36.5079 9.57913 35.6753 9.57913H31.4659M35.6751 2H12.5233C10.8487 2 9.2427 2.59887 8.05858 3.66487C6.87445 4.73086 6.20921 6.17666 6.20921 7.68421V28.5263M14.628 9.57895H23.0469M14.628 17.1579H23.0469M34.4544 20.2084C35.2833 19.4622 36.4076 19.043 37.5799 19.043C38.7522 19.043 39.8764 19.4622 40.7054 20.2084C41.5343 20.9547 42 21.9668 42 23.0221C42 24.0774 41.5343 25.0896 40.7054 25.8358L27.2563 38H20.9422V32.3158L34.4544 20.2084Z" stroke="#4446AE" stroke-width="3.33333" stroke-linecap="round" stroke-linejoin="round"/>
</svg>
