<svg width="46" height="46" viewBox="0 0 46 46" fill="none" xmlns="http://www.w3.org/2000/svg">
<g filter="url(#filter0_d_46_800)">
<path d="M42.5 20C42.5 30.7696 33.7696 39.5 23 39.5C12.2304 39.5 3.5 30.7696 3.5 20C3.5 9.23045 12.2304 0.5 23 0.5C33.7696 0.5 42.5 9.23045 42.5 20Z" fill="#171717"/>
<path d="M19.5312 13.5312C19.3512 13.7113 19.25 13.9556 19.25 14.2103C19.25 14.465 19.3512 14.7093 19.5312 14.8894L24.2857 19.6439L19.5312 24.3984C19.3563 24.5796 19.2594 24.8222 19.2616 25.074C19.2638 25.3259 19.3648 25.5668 19.5429 25.7449C19.721 25.9229 19.9619 26.024 20.2138 26.0262C20.4656 26.0283 20.7082 25.9315 20.8894 25.7566L26.323 20.323C26.503 20.1429 26.6042 19.8986 26.6042 19.6439C26.6042 19.3892 26.503 19.1449 26.323 18.9648L20.8894 13.5312C20.7093 13.3512 20.465 13.25 20.2103 13.25C19.9556 13.25 19.7113 13.3512 19.5312 13.5312Z" fill="#A39999"/>
<path d="M23 0.875C33.5624 0.875 42.125 9.43755 42.125 20C42.125 30.5624 33.5624 39.125 23 39.125C12.4376 39.125 3.875 30.5624 3.875 20C3.875 9.43755 12.4376 0.875 23 0.875ZM20.21 12.875C19.9002 12.8751 19.6018 12.9831 19.3643 13.1777L19.2656 13.2656C19.0153 13.516 18.8751 13.856 18.875 14.21C18.875 14.5199 18.983 14.819 19.1777 15.0566L19.2656 15.1543L23.7549 19.6436L19.2656 24.1328L19.2617 24.1377C19.049 24.358 18.9187 24.6438 18.8916 24.9463L18.8867 25.0771C18.8894 25.3836 18.9976 25.6783 19.1904 25.9131L19.2773 26.0098C19.494 26.2264 19.778 26.3613 20.0801 26.3936L20.2109 26.4014C20.5608 26.4043 20.8977 26.2694 21.1494 26.0264L20.8896 25.7568L21.1504 26.0264L21.1543 26.0215L26.5879 20.5879C26.8383 20.3374 26.9795 19.9977 26.9795 19.6436C26.9794 19.3338 26.8713 19.0354 26.6768 18.7979L26.5879 18.6992L21.1543 13.2656C20.9039 13.0154 20.5639 12.875 20.21 12.875ZM19.625 14.21C19.6251 14.0551 19.6865 13.9065 19.7959 13.7969C19.9056 13.6872 20.0548 13.6251 20.21 13.625C20.3265 13.625 20.4396 13.6599 20.5352 13.7236L20.624 13.7969L26.0576 19.2295C26.1673 19.3392 26.2294 19.4884 26.2295 19.6436C26.2295 19.76 26.1945 19.8733 26.1309 19.9688L26.0576 20.0576L20.624 25.4902C20.542 25.5679 20.4405 25.6199 20.3311 25.6406L20.2168 25.6514C20.1018 25.6503 19.9907 25.6149 19.8965 25.5518L19.8076 25.4795C19.7265 25.3982 19.6714 25.2954 19.6484 25.1846L19.6367 25.0703C19.6358 24.9552 19.6689 24.8434 19.7305 24.748L19.8008 24.6592L24.8164 19.6436L24.5508 19.3789L19.7969 14.624C19.6871 14.5142 19.625 14.3652 19.625 14.21Z" stroke="url(#paint0_linear_46_800)" stroke-width="0.75"/>
</g>
<defs>
<filter id="filter0_d_46_800" x="0.5" y="0.5" width="45" height="45" filterUnits="userSpaceOnUse" color-interpolation-filters="sRGB">
<feFlood flood-opacity="0" result="BackgroundImageFix"/>
<feColorMatrix in="SourceAlpha" type="matrix" values="0 0 0 0 0 0 0 0 0 0 0 0 0 0 0 0 0 0 127 0" result="hardAlpha"/>
<feOffset dy="3"/>
<feGaussianBlur stdDeviation="1.5"/>
<feComposite in2="hardAlpha" operator="out"/>
<feColorMatrix type="matrix" values="0 0 0 0 0 0 0 0 0 0 0 0 0 0 0 0 0 0 0.25 0"/>
<feBlend mode="normal" in2="BackgroundImageFix" result="effect1_dropShadow_46_800"/>
<feBlend mode="normal" in="SourceGraphic" in2="effect1_dropShadow_46_800" result="shape"/>
</filter>
<linearGradient id="paint0_linear_46_800" x1="23" y1="0.5" x2="23" y2="39.5" gradientUnits="userSpaceOnUse">
<stop stop-color="#A2A2A2"/>
<stop offset="1" stop-color="#191919"/>
</linearGradient>
</defs>
</svg>
