<svg width="14" height="15" viewBox="0 0 14 15" fill="none" xmlns="http://www.w3.org/2000/svg">
<g clip-path="url(#clip0_613_363)">
<path d="M13.6763 3.95073C13.4621 4.10123 11.1189 5.65936 10.8316 5.8348C10.7065 5.91136 10.5538 5.94876 10.3878 5.94876C10.1736 5.94876 9.93652 5.88642 9.7051 5.76458C9.47955 5.6458 8.79641 5.25708 8.46214 5.06611C8.16771 5.27283 7.47603 5.80264 6.38621 6.89355C5.30319 7.97614 4.76856 8.6735 4.56053 8.96948C4.75106 9.30352 5.13935 9.98667 5.25747 10.2115C5.48125 10.6355 5.50664 11.0588 5.32507 11.3442C5.15467 11.6133 3.60285 13.9666 3.44272 14.188C3.292 14.3969 3.02141 14.5098 2.72786 14.5098C2.4962 14.5098 2.25055 14.4398 2.03748 14.2915C2.01692 14.2768 -0.0419664 12.784 -0.0146226 11.9351C0.0612973 9.55027 2.37872 6.74764 4.3094 4.8163C6.24007 2.88495 9.04293 0.566874 11.4371 0.49053H11.4568C12.2951 0.49053 13.7686 2.52337 13.7828 2.5435C14.1693 3.09584 14.0285 3.70397 13.6763 3.95073ZM13.0719 3.05316C12.5169 2.28447 11.729 1.48164 11.4205 1.36679C9.77947 1.44379 7.47669 2.88601 4.92803 5.4351C2.3796 7.98441 0.937596 10.2846 0.861471 11.9202C0.972159 12.2295 1.77496 13.0224 2.53664 13.5733C2.59308 13.6122 2.66265 13.6347 2.72761 13.6347C2.74204 13.6347 2.75407 13.6334 2.76349 13.6317C3.00958 13.274 4.33061 11.2742 4.57036 10.9003C4.57124 10.861 4.55791 10.761 4.48286 10.6184C4.40302 10.4664 4.1543 10.0232 3.80058 9.40324L3.5254 8.92089L3.84455 8.46633C4.08255 8.12836 4.64868 7.39358 5.76714 6.27489C6.89043 5.15118 7.62258 4.58679 7.95924 4.35011L8.4138 4.03096L8.89614 4.30658C9.36363 4.57369 9.92843 4.89372 10.1122 4.99018C10.2596 5.06783 10.3605 5.07397 10.3878 5.07397C10.3922 5.07397 10.3959 5.07397 10.399 5.07352C10.7339 4.8633 12.777 3.50683 13.1377 3.25943C13.1436 3.22443 13.1381 3.14831 13.0719 3.05316ZM8.80208 9.35247C8.85852 9.29538 8.93795 9.26057 9.02611 9.26298L9.18624 9.26671C9.18928 9.26671 9.19147 9.26801 9.19498 9.26822L12.3327 9.25445C12.5093 9.2586 12.6556 9.40473 12.6598 9.58171L12.66 9.80615C12.6333 10.0144 12.4694 10.1365 12.2927 10.1325L10.2213 10.138L13.8027 13.7146C13.9736 13.8854 13.9736 14.1626 13.8027 14.3334C13.6319 14.504 13.3549 14.504 13.1841 14.3334L9.59286 10.747L9.6049 12.8639C9.60883 13.0406 9.46863 13.1946 9.29188 13.1904L9.06744 13.1902C8.89025 13.1859 8.74391 13.0806 8.74018 12.9039L8.73121 9.74557C8.73121 9.74252 8.74324 9.74033 8.74324 9.73727L8.72574 9.57714C8.72399 9.48833 8.74476 9.40936 8.80208 9.35247Z" fill="white"/>
</g>
<defs>
<clipPath id="clip0_613_363">
<rect width="14" height="14" fill="white" transform="matrix(1 0 0 -1 0 14.5)"/>
</clipPath>
</defs>
</svg>
